<?xml version="1.0" encoding="UTF-8"?>
<!DOCTYPE svg PUBLIC "-//W3C//DTD SVG 1.1//EN" "http://www.w3.org/Graphics/SVG/1.1/DTD/svg11.dtd">
<svg xmlns="http://www.w3.org/2000/svg" version="1.1" width="6526px" height="3679px" style="shape-rendering:geometricPrecision; text-rendering:geometricPrecision; image-rendering:optimizeQuality; fill-rule:evenodd; clip-rule:evenodd" xmlns:xlink="http://www.w3.org/1999/xlink">
<g><path style="opacity:0.991" fill="#fefffe" d="M 3385.5,183.5 C 3764.24,177.749 4128.57,246.916 4478.5,391C 4796.5,523.793 5074.66,713.96 5313,961.5C 5501.7,1161.39 5651.04,1388.06 5761,1641.5C 5781.63,1690.07 5800.3,1739.4 5817,1789.5C 5819.83,1808.71 5811.99,1820.87 5793.5,1826C 5758.17,1826.67 5722.83,1826.67 5687.5,1826C 5671.7,1823.53 5660.54,1815.03 5654,1800.5C 5568.28,1554.59 5442.28,1332.93 5276,1135.5C 5058.06,879.857 4797.22,680.691 4493.5,538C 4185.91,395.269 3862.58,314.936 3523.5,297C 3171.22,278.468 2828.55,327.135 2495.5,443C 2135.96,570.081 1824.13,769.914 1560,1042.5C 1550.83,1052.33 1541.67,1062.17 1532.5,1072C 1522.74,1080.58 1511.41,1083.92 1498.5,1082C 1483.37,1076.23 1477.87,1065.4 1482,1049.5C 1483.22,1045.38 1485.22,1041.72 1488,1038.5C 1767.16,724.498 2104.33,494.332 2499.5,348C 2785.77,243.902 3081.1,189.068 3385.5,183.5 Z"/></g>
<g><path style="opacity:0.994" fill="#fefffe" d="M 643.5,1403.5 C 781.543,1402.42 917.543,1418.59 1051.5,1452C 1244.37,1496.95 1428.03,1565.95 1602.5,1659C 1763.42,1745.53 1906.26,1856.03 2031,1990.5C 2088.56,2052.65 2138.56,2120.31 2181,2193.5C 2212.7,2249.58 2235.53,2309.08 2249.5,2372C 2271.95,2478.21 2257.45,2579.04 2206,2674.5C 2182.09,2717.66 2153.76,2757.66 2121,2794.5C 2057.61,2858.97 1983.78,2908.14 1899.5,2942C 1683.01,3027.06 1461.01,3045.06 1233.5,2996C 1215.11,2992.02 1196.78,2987.86 1178.5,2983.5C 1179.11,3007.16 1175.61,3030.16 1168,3052.5C 1161.75,3067.09 1151.25,3077.25 1136.5,3083C 1112.81,3090.46 1088.81,3091.8 1064.5,3087C 1035.62,3078.45 1016.12,3059.95 1006,3031.5C 1003.8,3025.23 1001.8,3018.89 1000,3012.5C 994.384,2978.07 989.551,2943.57 985.5,2909C 861.396,2852.5 749.063,2778.84 648.5,2688C 621.539,2662.38 596.039,2635.54 572,2607.5C 555.675,2586.87 541.342,2564.87 529,2541.5C 513.676,2511.24 509.676,2479.57 517,2446.5C 522.729,2427.7 532.063,2411.03 545,2396.5C 574.291,2366.2 607.791,2341.7 645.5,2323C 718.671,2287.28 795.004,2260.28 874.5,2242C 911.579,2233.38 948.913,2226.05 986.5,2220C 988.329,2219.73 989.829,2218.89 991,2217.5C 993.416,2129.76 1001.08,2042.43 1014,1955.5C 1018.5,1926.65 1025.17,1898.32 1034,1870.5C 1044.51,1841.25 1062.01,1836.42 1086.5,1856C 1103.73,1871.95 1116.9,1890.78 1126,1912.5C 1144.41,1958.47 1156.08,2006.14 1161,2055.5C 1165.86,2104.04 1168.36,2152.71 1168.5,2201.5C 1282.82,2196.28 1395.82,2206.11 1507.5,2231C 1569.49,2244.77 1628.49,2266.44 1684.5,2296C 1712.73,2312.05 1736.9,2332.88 1757,2358.5C 1789.21,2404.01 1794.87,2452.68 1774,2504.5C 1758.49,2533.35 1737.32,2557.18 1710.5,2576C 1661.32,2604.96 1610.99,2606.96 1559.5,2582C 1550.23,2576.22 1548.06,2568.38 1553,2558.5C 1554.5,2556.33 1556.33,2554.5 1558.5,2553C 1576.27,2544.95 1593.27,2535.62 1609.5,2525C 1619,2518.17 1627.17,2510 1634,2500.5C 1641.47,2488.93 1641.14,2477.6 1633,2466.5C 1620.47,2453.48 1605.31,2444.98 1587.5,2441C 1451.74,2398.48 1312.74,2375.65 1170.5,2372.5C 1173.4,2528.53 1177.07,2684.53 1181.5,2840.5C 1316.11,2866.6 1451.45,2870.76 1587.5,2853C 1674.77,2842.35 1758.1,2818.35 1837.5,2781C 1887.57,2756.55 1932.07,2724.38 1971,2684.5C 2055.27,2591.21 2079.93,2483.88 2045,2362.5C 2026.48,2307.79 2001.81,2256.13 1971,2207.5C 1940.68,2159.58 1906.02,2114.91 1867,2073.5C 1781.08,1984.85 1685.91,1908.35 1581.5,1844C 1455.67,1766.09 1322.34,1703.76 1181.5,1657C 1060.47,1613.74 936.469,1582.08 809.5,1562C 674.674,1540.86 539.341,1536.52 403.5,1549C 362.575,1553.12 322.909,1562.45 284.5,1577C 282.246,1578.38 280.08,1579.88 278,1581.5C 277.552,1583.41 278.385,1584.58 280.5,1585C 302.412,1589.16 324.412,1592.82 346.5,1596C 361.195,1599.24 371.361,1607.74 377,1621.5C 379.209,1630.63 377.042,1638.46 370.5,1645C 358.474,1651.92 345.474,1655.59 331.5,1656C 302.402,1657.9 273.735,1655.23 245.5,1648C 230.111,1644.57 217.611,1636.73 208,1624.5C 203.842,1613.87 202.509,1602.87 204,1591.5C 222.538,1517.63 268.372,1469.79 341.5,1448C 440.483,1420.79 541.15,1405.96 643.5,1403.5 Z M 980.5,2379.5 C 982.5,2379.5 984.5,2379.5 986.5,2379.5C 983.811,2515.22 983.978,2650.89 987,2786.5C 833.61,2733.52 700.276,2649.52 587,2534.5C 579.76,2526.36 573.76,2517.36 569,2507.5C 561.558,2489.37 565.724,2474.53 581.5,2463C 593.282,2454.77 605.948,2448.11 619.5,2443C 737.457,2407.56 857.79,2386.4 980.5,2379.5 Z"/></g>
<g><path style="opacity:0.992" fill="#fefffe" d="M 2543.5,1534.5 C 2573.64,1532.58 2603.31,1535.41 2632.5,1543C 2667.51,1554.15 2696.18,1574.15 2718.5,1603C 2730.13,1605.99 2741.8,1608.99 2753.5,1612C 2795.57,1625.74 2826.07,1652.57 2845,1692.5C 2858.79,1732.75 2857.13,1772.42 2840,1811.5C 2828.93,1836.65 2814.6,1859.65 2797,1880.5C 2755.95,1924.25 2710.78,1962.75 2661.5,1996C 2619.03,2023.23 2573.7,2044.57 2525.5,2060C 2491.7,2069.88 2457.2,2075.38 2422,2076.5C 2396.11,2075.83 2370.61,2072.33 2345.5,2066C 2337.75,2063.75 2330.25,2060.92 2323,2057.5C 2315.33,2070.17 2307.67,2082.83 2300,2095.5C 2293.61,2104.78 2285.11,2111.28 2274.5,2115C 2262.17,2116.89 2251.5,2113.56 2242.5,2105C 2224.94,2087.05 2214.44,2065.55 2211,2040.5C 2210.92,2024.46 2210.26,2008.46 2209,1992.5C 2206.94,1987.38 2204.61,1982.38 2202,1977.5C 2157.23,1921.56 2146.57,1859.56 2170,1791.5C 2185.65,1751.51 2208.31,1716.18 2238,1685.5C 2307.32,1614.41 2390.48,1566.91 2487.5,1543C 2506.16,1539.17 2524.83,1536.33 2543.5,1534.5 Z M 2440.5,1683.5 C 2443.85,1683.33 2447.18,1683.5 2450.5,1684C 2378.02,1742.63 2316.02,1810.47 2264.5,1887.5C 2252.44,1867.23 2250.27,1845.9 2258,1823.5C 2269.38,1796.44 2285.88,1772.94 2307.5,1753C 2338.99,1723.74 2375.33,1702.41 2416.5,1689C 2424.62,1687.08 2432.62,1685.25 2440.5,1683.5 Z M 2687.5,1696.5 C 2711.64,1695.04 2731.48,1703.37 2747,1721.5C 2758.1,1739.68 2760.43,1759.01 2754,1779.5C 2746.38,1800.76 2734.71,1819.43 2719,1835.5C 2635.42,1913.93 2535.92,1950.76 2420.5,1946C 2409.27,1945.72 2398.27,1944.06 2387.5,1941C 2417.36,1894.74 2452.7,1852.74 2493.5,1815C 2531.37,1779.45 2572.37,1748.12 2616.5,1721C 2638.71,1708.1 2662.37,1699.93 2687.5,1696.5 Z"/></g>
<g><path style="opacity:0.994" fill="#fefffe" d="M 5721.5,1970.5 C 5756.17,1970.33 5790.83,1970.5 5825.5,1971C 5846.55,1975.38 5858.72,1988.22 5862,2009.5C 5881.69,2124.7 5893.52,2240.7 5897.5,2357.5C 6015.2,2357.01 6132.87,2357.51 6250.5,2359C 6260.33,2362.17 6266.83,2368.67 6270,2378.5C 6271.14,2398.95 6271.64,2419.45 6271.5,2440C 6271.64,2460.87 6271.14,2481.71 6270,2502.5C 6266.76,2512.74 6259.93,2519.24 6249.5,2522C 6132.17,2522.5 6014.83,2522.67 5897.5,2522.5C 5893.64,2642.74 5881.14,2762.08 5860,2880.5C 5854.06,2898.05 5841.89,2907.89 5823.5,2910C 5807,2910.17 5790.5,2910.33 5774,2910.5C 5755.46,2910.63 5736.96,2910.13 5718.5,2909C 5702.02,2902.83 5695.19,2891 5698,2873.5C 5719.65,2757.47 5732.49,2640.47 5736.5,2522.5C 5617.17,2522.67 5497.83,2522.5 5378.5,2522C 5368.33,2518.5 5361.5,2511.67 5358,2501.5C 5356.87,2481.2 5356.37,2460.87 5356.5,2440.5C 5356.37,2420.13 5356.87,2399.8 5358,2379.5C 5360.74,2369.1 5367.24,2362.26 5377.5,2359C 5497.13,2357.51 5616.8,2357.01 5736.5,2357.5C 5732.06,2237.56 5719.06,2118.56 5697.5,2000.5C 5698.54,1984.81 5706.54,1974.81 5721.5,1970.5 Z"/></g>
<g><path style="opacity:0.994" fill="#fefffe" d="M 3680.5,2072.5 C 3688.45,2071.87 3696.12,2073.03 3703.5,2076C 3726.01,2089.5 3746.51,2105.67 3765,2124.5C 3811.3,2173.72 3845.97,2230.38 3869,2294.5C 3912.14,2418.79 3922.47,2545.79 3900,2675.5C 3895.11,2705.06 3887.11,2733.73 3876,2761.5C 3860.61,2794.89 3836.45,2819.72 3803.5,2836C 3760.42,2850.48 3722.76,2841.81 3690.5,2810C 3667.95,2785.37 3647.45,2759.21 3629,2731.5C 3611.5,2703.83 3594.5,2675.83 3578,2647.5C 3551.41,2597.99 3525.08,2548.33 3499,2498.5C 3494.67,2491.83 3490.33,2485.17 3486,2478.5C 3483.63,2475.79 3480.96,2473.46 3478,2471.5C 3474.87,2474.87 3472.87,2478.87 3472,2483.5C 3466.73,2515.95 3463.73,2548.62 3463,2581.5C 3461.95,2637.2 3459.95,2692.87 3457,2748.5C 3455.52,2779.34 3450.85,2809.67 3443,2839.5C 3435.02,2864.61 3417.85,2879.11 3391.5,2883C 3353.11,2884.72 3327.28,2867.56 3314,2831.5C 3306.64,2806.7 3302.31,2781.36 3301,2755.5C 3295.95,2619.26 3310.95,2485.26 3346,2353.5C 3353.72,2324.68 3364.38,2297.01 3378,2270.5C 3386.63,2255.06 3398.13,2242.23 3412.5,2232C 3428.99,2222.39 3445.66,2222.06 3462.5,2231C 3467.01,2233.75 3471.34,2236.75 3475.5,2240C 3499.5,2262.66 3521.34,2287.16 3541,2313.5C 3571.9,2355.07 3601.23,2397.73 3629,2441.5C 3662.63,2500.43 3698.63,2557.76 3737,2613.5C 3739.87,2616.7 3743.04,2619.54 3746.5,2622C 3752.51,2624.87 3757.01,2623.37 3760,2617.5C 3762.95,2601.24 3763.28,2584.91 3761,2568.5C 3746.66,2473.81 3727.33,2380.14 3703,2287.5C 3689.64,2237.4 3675.98,2187.4 3662,2137.5C 3659.51,2121.02 3660.17,2104.68 3664,2088.5C 3666.8,2080.19 3672.3,2074.86 3680.5,2072.5 Z"/></g>
<g><path style="opacity:0.994" fill="#fefffe" d="M 4791.5,2151.5 C 4804.3,2149.13 4811.13,2154.46 4812,2167.5C 4815.16,2208.38 4806.83,2246.71 4787,2282.5C 4759.09,2333.99 4730.43,2384.99 4701,2435.5C 4681.47,2473.76 4668.13,2514.1 4661,2556.5C 4657.74,2576.84 4657.74,2597.18 4661,2617.5C 4714.41,2535.05 4773.41,2456.71 4838,2382.5C 4867.6,2349.23 4899.43,2318.4 4933.5,2290C 4959.84,2268.49 4988.51,2250.49 5019.5,2236C 5098.54,2204.46 5156.04,2226.96 5192,2303.5C 5211.36,2354.06 5219.03,2406.39 5215,2460.5C 5212.02,2517.74 5198.69,2572.41 5175,2624.5C 5130.03,2709.48 5068.53,2780.32 4990.5,2837C 4950.73,2864.38 4907.06,2882.71 4859.5,2892C 4824.35,2897.29 4789.35,2896.46 4754.5,2889.5C 4753.5,2889.83 4752.5,2890.17 4751.5,2890.5C 4690.32,3033.88 4645.15,3182.21 4616,3335.5C 4607.74,3381.35 4600.4,3427.35 4594,3473.5C 4591.51,3481.98 4587.34,3489.48 4581.5,3496C 4574.16,3501.89 4565.82,3503.89 4556.5,3502C 4547.78,3499.65 4539.45,3496.32 4531.5,3492C 4483.64,3459.09 4451.47,3414.59 4435,3358.5C 4428.23,3334.47 4425.4,3309.97 4426.5,3285C 4427.4,3230.35 4434.57,3176.52 4448,3123.5C 4473.19,3023.15 4506.86,2925.81 4549,2831.5C 4558.03,2811.27 4567.2,2791.11 4576.5,2771C 4544,2714.16 4530.5,2652.99 4536,2587.5C 4539.85,2534.76 4552.18,2484.09 4573,2435.5C 4618.91,2326.48 4687.08,2233.98 4777.5,2158C 4782.14,2155.51 4786.8,2153.34 4791.5,2151.5 Z M 5096.5,2363.5 C 5109.25,2363.07 5117.42,2369.07 5121,2381.5C 5128.13,2426.46 5122.46,2469.79 5104,2511.5C 5079.95,2563.08 5046.11,2607.25 5002.5,2644C 4950.47,2681.02 4892.81,2703.52 4829.5,2711.5C 4878.93,2617.93 4937.76,2530.93 5006,2450.5C 5022.43,2431.31 5039.1,2412.31 5056,2393.5C 5067.2,2380.1 5080.7,2370.1 5096.5,2363.5 Z"/></g>
<g><path style="opacity:0.993" fill="#fefffe" d="M 2990.5,2167.5 C 3038.14,2167.54 3085.47,2171.37 3132.5,2179C 3174.3,2185.6 3213.97,2198.6 3251.5,2218C 3264.87,2224.9 3270.03,2235.74 3267,2250.5C 3259.77,2276.73 3243.61,2295.23 3218.5,2306C 3194.75,2313.57 3170.42,2318.24 3145.5,2320C 3121.54,2322.24 3097.54,2323.9 3073.5,2325C 3010.48,2327.12 2947.48,2329.79 2884.5,2333C 2834.36,2335.68 2784.69,2342.02 2735.5,2352C 2716.52,2355.66 2698.19,2361.33 2680.5,2369C 2673.2,2374.45 2672.87,2380.11 2679.5,2386C 2689.57,2391.19 2700.24,2394.52 2711.5,2396C 2805.1,2407.91 2898.76,2419.24 2992.5,2430C 3042.63,2435.22 3091.29,2446.56 3138.5,2464C 3164.56,2474.08 3186.73,2489.58 3205,2510.5C 3246.55,2569.23 3259.55,2633.9 3244,2704.5C 3229.72,2760.76 3197.89,2803.92 3148.5,2834C 3105.33,2859.06 3058.99,2875.39 3009.5,2883C 2883.1,2901.39 2767.1,2875.06 2661.5,2804C 2639.74,2788.25 2620.58,2769.75 2604,2748.5C 2580.01,2715.9 2572.68,2679.9 2582,2640.5C 2594.07,2604.76 2617.57,2579.59 2652.5,2565C 2698.86,2547.23 2746.86,2539.9 2796.5,2543C 2860.63,2547.47 2923.3,2559.47 2984.5,2579C 3005.87,2586.79 3026.54,2596.12 3046.5,2607C 3057.6,2617.05 3059.44,2628.55 3052,2641.5C 3043.1,2651.88 3032.27,2659.71 3019.5,2665C 2981.57,2681.73 2941.9,2689.73 2900.5,2689C 2888.58,2687.95 2876.91,2685.62 2865.5,2682C 2831.27,2668.89 2797.27,2655.22 2763.5,2641C 2744.61,2633.9 2725.11,2629.74 2705,2628.5C 2686.08,2628.18 2668.91,2633.35 2653.5,2644C 2634.32,2663.81 2634.99,2682.81 2655.5,2701C 2687.03,2719.29 2721.03,2729.95 2757.5,2733C 2836.58,2737.66 2914.25,2729.33 2990.5,2708C 3033.07,2695.38 3072.41,2676.38 3108.5,2651C 3136.3,2628.13 3136.3,2605.46 3108.5,2583C 3088.73,2570.07 3067.4,2560.4 3044.5,2554C 2997.84,2541.73 2950.51,2533.07 2902.5,2528C 2823.18,2520.18 2743.85,2512.51 2664.5,2505C 2640.5,2502.47 2617.17,2497.13 2594.5,2489C 2552.08,2468.01 2534.58,2433.84 2542,2386.5C 2547.14,2341.39 2566.64,2303.89 2600.5,2274C 2625.02,2253.56 2652.02,2236.89 2681.5,2224C 2741.95,2199.55 2804.62,2183.55 2869.5,2176C 2909.84,2170.98 2950.17,2168.14 2990.5,2167.5 Z"/></g>
<g><path style="opacity:0.994" fill="#fefffe" d="M 4372.5,2175.5 C 4449.43,2157.37 4508.27,2181.37 4549,2247.5C 4555.59,2259.01 4561.92,2270.67 4568,2282.5C 4573.83,2294.84 4573.5,2306.84 4567,2318.5C 4562.01,2323.41 4556.18,2326.91 4549.5,2329C 4528.35,2333.75 4507.02,2337.41 4485.5,2340C 4403.04,2349.46 4320.37,2356.29 4237.5,2360.5C 4228.91,2389.28 4219.91,2417.94 4210.5,2446.5C 4211.17,2446.83 4211.83,2447.17 4212.5,2447.5C 4265.42,2443.12 4318.42,2441.95 4371.5,2444C 4385.91,2444.62 4400.25,2445.95 4414.5,2448C 4424.99,2453.18 4430.83,2461.68 4432,2473.5C 4433.02,2497.26 4432.02,2520.92 4429,2544.5C 4423.16,2556.99 4413.33,2564.16 4399.5,2566C 4377.88,2568.28 4356.22,2569.95 4334.5,2571C 4275.83,2574.11 4217.17,2576.94 4158.5,2579.5C 4147.18,2619.96 4135.35,2660.3 4123,2700.5C 4121.34,2711.17 4125.84,2715.34 4136.5,2713C 4220.47,2694.56 4305.14,2680.23 4390.5,2670C 4409.68,2666.18 4426.68,2670.51 4441.5,2683C 4462.96,2700.43 4473.13,2722.93 4472,2750.5C 4471.13,2755.77 4469.47,2760.77 4467,2765.5C 4453.79,2783.04 4438.29,2798.21 4420.5,2811C 4347.32,2865.42 4266.32,2904.08 4177.5,2927C 4108.75,2947.36 4050.25,2931.53 4002,2879.5C 3986.49,2862.64 3974.15,2843.64 3965,2822.5C 3955.62,2792.82 3952.62,2762.49 3956,2731.5C 3961.82,2679.39 3974.98,2629.22 3995.5,2581C 3985.01,2556.88 3979.01,2531.71 3977.5,2505.5C 3976.51,2494.27 3979.01,2483.94 3985,2474.5C 3994.1,2467.7 4004.27,2463.2 4015.5,2461C 4025.69,2459 4035.85,2457.16 4046,2455.5C 4063.37,2419.26 4080.87,2383.09 4098.5,2347C 4067.75,2347.07 4040.08,2338.07 4015.5,2320C 3999.87,2304.89 3987.03,2287.72 3977,2268.5C 3968.84,2250.99 3973.34,2238.15 3990.5,2230C 4016.38,2221.89 4042.72,2215.56 4069.5,2211C 4169.88,2192.49 4270.88,2180.66 4372.5,2175.5 Z"/></g>
<g><path style="opacity:0.994" fill="#fefffe" d="M 2395.5,2195.5 C 2419.82,2197.91 2438.32,2209.58 2451,2230.5C 2461.07,2249.7 2467.73,2270.03 2471,2291.5C 2479.77,2345.86 2485.77,2400.52 2489,2455.5C 2496.45,2575.07 2501.12,2694.73 2503,2814.5C 2502.77,2833.65 2499.77,2852.31 2494,2870.5C 2484.97,2890.6 2469.47,2901.77 2447.5,2904C 2421.49,2908 2396.82,2904 2373.5,2892C 2358.32,2881.83 2347.82,2868 2342,2850.5C 2335.39,2825.6 2331.39,2800.26 2330,2774.5C 2323.48,2660.11 2324.48,2545.78 2333,2431.5C 2336.76,2384.54 2342.76,2337.88 2351,2291.5C 2354.82,2268.88 2360.82,2246.88 2369,2225.5C 2373.07,2215.18 2379.24,2206.35 2387.5,2199C 2390.16,2197.52 2392.82,2196.36 2395.5,2195.5 Z"/></g>
</svg>
